<mxfile host="app.diagrams.net" modified="2023-04-10T19:49:09.933Z" agent="Mozilla/5.0 (Windows NT 10.0; Win64; x64) AppleWebKit/537.36 (KHTML, like Gecko) Chrome/111.0.0.0 Safari/537.36 Edg/111.0.1661.62" etag="yP59j2UeIS9wKMJ92QHQ" version="21.1.5" type="github">
  <diagram name="Página-1" id="WtvAYmkzuyGqZxGW38NF">
    <mxGraphModel dx="545" dy="352" grid="1" gridSize="10" guides="1" tooltips="1" connect="1" arrows="1" fold="1" page="1" pageScale="1" pageWidth="827" pageHeight="1169" math="0" shadow="0">
      <root>
        <mxCell id="0" />
        <mxCell id="1" parent="0" />
        <mxCell id="rgZplWQKQRmEdnJ1gxll-26" style="edgeStyle=orthogonalEdgeStyle;rounded=0;orthogonalLoop=1;jettySize=auto;html=1;entryX=0;entryY=0.5;entryDx=0;entryDy=0;" edge="1" parent="1" source="rgZplWQKQRmEdnJ1gxll-1" target="rgZplWQKQRmEdnJ1gxll-2">
          <mxGeometry relative="1" as="geometry" />
        </mxCell>
        <mxCell id="rgZplWQKQRmEdnJ1gxll-1" value="" style="rounded=0;whiteSpace=wrap;html=1;direction=west;" vertex="1" parent="1">
          <mxGeometry x="130" y="220" width="120" height="60" as="geometry" />
        </mxCell>
        <mxCell id="rgZplWQKQRmEdnJ1gxll-2" value="" style="rounded=0;whiteSpace=wrap;html=1;" vertex="1" parent="1">
          <mxGeometry x="460" y="220" width="120" height="60" as="geometry" />
        </mxCell>
        <mxCell id="rgZplWQKQRmEdnJ1gxll-16" style="edgeStyle=orthogonalEdgeStyle;rounded=0;orthogonalLoop=1;jettySize=auto;html=1;" edge="1" parent="1" source="rgZplWQKQRmEdnJ1gxll-3">
          <mxGeometry relative="1" as="geometry">
            <mxPoint x="260" y="220" as="targetPoint" />
          </mxGeometry>
        </mxCell>
        <mxCell id="rgZplWQKQRmEdnJ1gxll-17" style="edgeStyle=orthogonalEdgeStyle;rounded=0;orthogonalLoop=1;jettySize=auto;html=1;" edge="1" parent="1" source="rgZplWQKQRmEdnJ1gxll-3">
          <mxGeometry relative="1" as="geometry">
            <mxPoint x="410" y="220" as="targetPoint" />
          </mxGeometry>
        </mxCell>
        <mxCell id="rgZplWQKQRmEdnJ1gxll-3" value="&lt;font color=&quot;#ff0000&quot;&gt;LOTAÇÃO&lt;/font&gt;" style="rhombus;whiteSpace=wrap;html=1;" vertex="1" parent="1">
          <mxGeometry x="320" y="180" width="80" height="80" as="geometry" />
        </mxCell>
        <mxCell id="rgZplWQKQRmEdnJ1gxll-5" value="&lt;font color=&quot;#ff4275&quot;&gt;Funcionario&lt;/font&gt;" style="swimlane;fontStyle=0;childLayout=stackLayout;horizontal=1;startSize=30;horizontalStack=0;resizeParent=1;resizeParentMax=0;resizeLast=0;collapsible=1;marginBottom=0;whiteSpace=wrap;html=1;strokeColor=#2B00FF;" vertex="1" parent="1">
          <mxGeometry x="120" y="311" width="140" height="190" as="geometry" />
        </mxCell>
        <mxCell id="rgZplWQKQRmEdnJ1gxll-6" value="&lt;font style=&quot;font-size: 10px;&quot;&gt;id_Funcionario(pk): char (2)&lt;/font&gt;" style="text;strokeColor=none;fillColor=none;align=left;verticalAlign=middle;spacingLeft=4;spacingRight=4;overflow=hidden;points=[[0,0.5],[1,0.5]];portConstraint=eastwest;rotatable=0;whiteSpace=wrap;html=1;" vertex="1" parent="rgZplWQKQRmEdnJ1gxll-5">
          <mxGeometry y="30" width="140" height="30" as="geometry" />
        </mxCell>
        <mxCell id="rgZplWQKQRmEdnJ1gxll-7" value="&lt;font style=&quot;font-size: 10px;&quot;&gt;Nome_Funcionario:char(20)&lt;/font&gt;" style="text;strokeColor=none;fillColor=none;align=left;verticalAlign=middle;spacingLeft=4;spacingRight=4;overflow=hidden;points=[[0,0.5],[1,0.5]];portConstraint=eastwest;rotatable=0;whiteSpace=wrap;html=1;" vertex="1" parent="rgZplWQKQRmEdnJ1gxll-5">
          <mxGeometry y="60" width="140" height="30" as="geometry" />
        </mxCell>
        <mxCell id="rgZplWQKQRmEdnJ1gxll-20" value="&lt;span style=&quot;color: rgb(0, 0, 0); font-family: Helvetica; font-size: 12px; font-style: normal; font-variant-ligatures: normal; font-variant-caps: normal; font-weight: 400; letter-spacing: normal; orphans: 2; text-align: left; text-indent: 0px; text-transform: none; widows: 2; word-spacing: 0px; -webkit-text-stroke-width: 0px; background-color: rgb(251, 251, 251); text-decoration-thickness: initial; text-decoration-style: initial; text-decoration-color: initial; float: none; display: inline !important;&quot;&gt;&amp;nbsp;cpf: integer(11)&lt;/span&gt;" style="text;whiteSpace=wrap;html=1;" vertex="1" parent="rgZplWQKQRmEdnJ1gxll-5">
          <mxGeometry y="90" width="140" height="30" as="geometry" />
        </mxCell>
        <mxCell id="rgZplWQKQRmEdnJ1gxll-8" value="&lt;font style=&quot;font-size: 10px;&quot;&gt;salario_funcionario: integer(6)&lt;/font&gt;" style="text;strokeColor=none;fillColor=none;align=left;verticalAlign=middle;spacingLeft=4;spacingRight=4;overflow=hidden;points=[[0,0.5],[1,0.5]];portConstraint=eastwest;rotatable=0;whiteSpace=wrap;html=1;" vertex="1" parent="rgZplWQKQRmEdnJ1gxll-5">
          <mxGeometry y="120" width="140" height="30" as="geometry" />
        </mxCell>
        <mxCell id="rgZplWQKQRmEdnJ1gxll-29" value="&lt;span style=&quot;color: rgb(0, 0, 0); font-family: Helvetica; font-size: 12px; font-style: normal; font-variant-ligatures: normal; font-variant-caps: normal; font-weight: 400; letter-spacing: normal; orphans: 2; text-align: left; text-indent: 0px; text-transform: none; widows: 2; word-spacing: 0px; -webkit-text-stroke-width: 0px; background-color: rgb(251, 251, 251); text-decoration-thickness: initial; text-decoration-style: initial; text-decoration-color: initial; float: none; display: inline !important;&quot;&gt;Id_Departamento(fk): integer(1)&lt;/span&gt;" style="text;whiteSpace=wrap;html=1;" vertex="1" parent="rgZplWQKQRmEdnJ1gxll-5">
          <mxGeometry y="150" width="140" height="40" as="geometry" />
        </mxCell>
        <mxCell id="rgZplWQKQRmEdnJ1gxll-9" value="&lt;font color=&quot;#ff0000&quot;&gt;departamento&lt;/font&gt;" style="swimlane;fontStyle=0;childLayout=stackLayout;horizontal=1;startSize=30;horizontalStack=0;resizeParent=1;resizeParentMax=0;resizeLast=0;collapsible=1;marginBottom=0;whiteSpace=wrap;html=1;" vertex="1" parent="1">
          <mxGeometry x="450" y="310" width="140" height="150" as="geometry" />
        </mxCell>
        <mxCell id="rgZplWQKQRmEdnJ1gxll-10" value="Id_Departamento(pk): integer(1)" style="text;strokeColor=none;fillColor=none;align=left;verticalAlign=middle;spacingLeft=4;spacingRight=4;overflow=hidden;points=[[0,0.5],[1,0.5]];portConstraint=eastwest;rotatable=0;whiteSpace=wrap;html=1;" vertex="1" parent="rgZplWQKQRmEdnJ1gxll-9">
          <mxGeometry y="30" width="140" height="30" as="geometry" />
        </mxCell>
        <mxCell id="rgZplWQKQRmEdnJ1gxll-11" value="nome_departamento: char(20)" style="text;strokeColor=none;fillColor=none;align=left;verticalAlign=middle;spacingLeft=4;spacingRight=4;overflow=hidden;points=[[0,0.5],[1,0.5]];portConstraint=eastwest;rotatable=0;whiteSpace=wrap;html=1;" vertex="1" parent="rgZplWQKQRmEdnJ1gxll-9">
          <mxGeometry y="60" width="140" height="30" as="geometry" />
        </mxCell>
        <mxCell id="rgZplWQKQRmEdnJ1gxll-21" value="&lt;span style=&quot;color: rgb(0, 0, 0); font-family: Helvetica; font-style: normal; font-variant-ligatures: normal; font-variant-caps: normal; font-weight: 400; letter-spacing: normal; orphans: 2; text-align: left; text-indent: 0px; text-transform: none; widows: 2; word-spacing: 0px; -webkit-text-stroke-width: 0px; background-color: rgb(251, 251, 251); text-decoration-thickness: initial; text-decoration-style: initial; text-decoration-color: initial; float: none; display: inline !important;&quot;&gt;&lt;font style=&quot;font-size: 10px;&quot;&gt;renda_mensal_departamento:&lt;br&gt;integer (11)&lt;br&gt;&lt;/font&gt;&lt;/span&gt;" style="text;whiteSpace=wrap;html=1;" vertex="1" parent="rgZplWQKQRmEdnJ1gxll-9">
          <mxGeometry y="90" width="140" height="30" as="geometry" />
        </mxCell>
        <mxCell id="rgZplWQKQRmEdnJ1gxll-12" value="&lt;font style=&quot;font-size: 8px;&quot;&gt;chefe_departamento:char(15)&lt;/font&gt;" style="text;strokeColor=none;fillColor=none;align=left;verticalAlign=middle;spacingLeft=4;spacingRight=4;overflow=hidden;points=[[0,0.5],[1,0.5]];portConstraint=eastwest;rotatable=0;whiteSpace=wrap;html=1;" vertex="1" parent="rgZplWQKQRmEdnJ1gxll-9">
          <mxGeometry y="120" width="140" height="30" as="geometry" />
        </mxCell>
        <mxCell id="rgZplWQKQRmEdnJ1gxll-18" value="x" style="text;html=1;align=center;verticalAlign=middle;resizable=0;points=[];autosize=1;strokeColor=none;fillColor=none;" vertex="1" parent="1">
          <mxGeometry x="220" y="190" width="30" height="30" as="geometry" />
        </mxCell>
        <mxCell id="rgZplWQKQRmEdnJ1gxll-19" value="y" style="text;html=1;align=center;verticalAlign=middle;resizable=0;points=[];autosize=1;strokeColor=none;fillColor=none;" vertex="1" parent="1">
          <mxGeometry x="450" y="190" width="30" height="30" as="geometry" />
        </mxCell>
        <mxCell id="rgZplWQKQRmEdnJ1gxll-22" value="&lt;font color=&quot;#ff0000&quot;&gt;Funcionario&lt;/font&gt;" style="text;html=1;strokeColor=none;fillColor=none;align=center;verticalAlign=middle;whiteSpace=wrap;rounded=0;" vertex="1" parent="1">
          <mxGeometry x="160" y="235" width="60" height="30" as="geometry" />
        </mxCell>
        <mxCell id="rgZplWQKQRmEdnJ1gxll-23" value="&lt;font color=&quot;#ff0000&quot;&gt;departamento&lt;/font&gt;" style="text;html=1;strokeColor=none;fillColor=none;align=center;verticalAlign=middle;whiteSpace=wrap;rounded=0;" vertex="1" parent="1">
          <mxGeometry x="490" y="235" width="60" height="30" as="geometry" />
        </mxCell>
        <mxCell id="rgZplWQKQRmEdnJ1gxll-28" style="edgeStyle=orthogonalEdgeStyle;rounded=0;orthogonalLoop=1;jettySize=auto;html=1;entryX=1;entryY=0.5;entryDx=0;entryDy=0;" edge="1" parent="1" source="rgZplWQKQRmEdnJ1gxll-10" target="rgZplWQKQRmEdnJ1gxll-29">
          <mxGeometry relative="1" as="geometry">
            <mxPoint x="270" y="480" as="targetPoint" />
          </mxGeometry>
        </mxCell>
      </root>
    </mxGraphModel>
  </diagram>
</mxfile>
